<svg width="49" height="72" viewBox="0 0 49 72" fill="none" xmlns="http://www.w3.org/2000/svg">
<g filter="url(#filter0_d)">
<path d="M44.9625 20.3267H10.5217L25.5684 5.28004C26.7709 4.07754 26.7709 2.1042 25.5684 0.901702C25.2831 0.615866 24.9443 0.389094 24.5713 0.234368C24.1983 0.0796416 23.7984 0 23.3946 0C22.9908 0 22.5909 0.0796416 22.2179 0.234368C21.8449 0.389094 21.5061 0.615866 21.2209 0.901702L0.901703 21.2209C0.615867 21.5061 0.389095 21.8449 0.234369 22.2179C0.0796431 22.5909 0 22.9908 0 23.3946C0 23.7984 0.0796431 24.1983 0.234369 24.5713C0.389095 24.9443 0.615867 25.2831 0.901703 25.5684L21.2209 45.8875C21.5063 46.173 21.8452 46.3994 22.2182 46.5539C22.5912 46.7084 22.9909 46.7879 23.3946 46.7879C23.7983 46.7879 24.1981 46.7084 24.571 46.5539C24.944 46.3994 25.2829 46.173 25.5684 45.8875C25.8538 45.6021 26.0803 45.2632 26.2348 44.8902C26.3892 44.5172 26.4688 44.1175 26.4688 43.7138C26.4688 43.3101 26.3892 42.9103 26.2348 42.5374C26.0803 42.1644 25.8538 41.8255 25.5684 41.54L10.5217 26.4934H44.9625C46.6584 26.4934 48.0459 25.1059 48.0459 23.41C48.0459 21.7142 46.6584 20.3267 44.9625 20.3267Z" fill="black"/>
</g>
<defs>
<filter id="filter0_d" x="0" y="0" width="48.0459" height="71.7879" filterUnits="userSpaceOnUse" color-interpolation-filters="sRGB">
<feFlood flood-opacity="0" result="BackgroundImageFix"/>
<feColorMatrix in="SourceAlpha" type="matrix" values="0 0 0 0 0 0 0 0 0 0 0 0 0 0 0 0 0 0 127 0" result="hardAlpha"/>
<feOffset dy="25"/>
<feComposite in2="hardAlpha" operator="out"/>
<feColorMatrix type="matrix" values="0 0 0 0 1 0 0 0 0 0.870588 0 0 0 0 0.490196 0 0 0 1 0"/>
<feBlend mode="normal" in2="BackgroundImageFix" result="effect1_dropShadow"/>
<feBlend mode="normal" in="SourceGraphic" in2="effect1_dropShadow" result="shape"/>
</filter>
</defs>
</svg>
