<svg width="590" height="431" viewBox="0 0 590 431" fill="none" xmlns="http://www.w3.org/2000/svg">
<path fill-rule="evenodd" clip-rule="evenodd" d="M288.59 0.00241561C336.876 -0.280723 377.185 24.3859 420.025 42.7172C471.745 64.8489 536.242 75.7678 564.103 117.897C593.542 162.412 601.921 223.982 567.803 266.176C534.02 307.957 451.638 290.823 401.333 319.202C353.474 346.202 343.722 408.793 288.59 423.691C228.267 439.992 158.318 427.806 105.164 399.236C50.7155 369.971 3.53649 322.081 0.126329 268.649C-3.12867 217.648 57.3223 182.222 88.4947 138.057C111.453 105.529 123.477 68.4205 158.508 44.2507C195.361 18.8242 240.493 0.284438 288.59 0.00241561Z" fill="#00B8A9"/>
</svg>
