<svg width="613" height="621" viewBox="0 0 613 621" fill="none" xmlns="http://www.w3.org/2000/svg">
<path fill-rule="evenodd" clip-rule="evenodd" d="M335.162 0.364081C402.604 5.0566 447.772 67.5127 497.936 112.834C542.281 152.898 595.543 189.657 609.106 247.862C622.265 304.334 592.096 359.818 567.75 412.444C546.178 459.072 520.404 504.539 477.374 532.609C435.685 559.804 383.577 552.611 335.162 564.168C265.989 580.681 200.31 638.49 133.271 614.751C64.0037 590.222 7.45569 518.779 0.43032 445.633C-6.43318 374.172 70.6634 326.075 99.219 260.209C123.698 203.745 113.685 134.538 155.056 88.9762C201.162 38.1989 266.741 -4.39663 335.162 0.364081Z" fill="#FFDE7D"/>
</svg>
